<svg width="1000" height="1250" viewBox="0 0 1000 1250" fill="none" xmlns="http://www.w3.org/2000/svg">
<rect width="1000" height="1250" fill="#DBDBDB"/>
<path fill-rule="evenodd" clip-rule="evenodd" d="M600 565C600 553.954 591.046 545 580 545H420C408.954 545 400 553.954 400 565V685C400 696.046 408.954 705 420 705H580C591.046 705 600 696.046 600 685V565ZM475 575C483.284 575 490 581.716 490 590C490 598.284 483.284 605 475 605C466.716 605 460 598.284 460 590C460 581.716 466.716 575 475 575ZM565 675C567.762 675 570 672.762 570 670V666.6C569.993 665.519 569.643 664.469 569 663.6L526.5 606.9C525.533 605.677 524.059 604.964 522.5 604.964C520.941 604.964 519.467 605.677 518.5 606.9L489.7 644.1C488.746 645.347 487.27 646.085 485.7 646.1C484.227 646.102 482.832 645.441 481.9 644.3L467.4 626.8C466.437 625.644 465.005 624.983 463.5 625C462.128 625.144 460.868 625.827 460 626.9L431.1 663.6C430.387 664.437 429.997 665.501 430 666.6V670C430 672.762 432.239 675 435 675H565Z" fill="black" fill-opacity="0.15"/>
<circle cx="579" cy="546" r="41" fill="#DBDBDB"/>
<path d="M565.83 563V557.682L578.256 546.176C579.313 545.153 580.199 544.233 580.915 543.415C581.642 542.597 582.193 541.795 582.568 541.011C582.943 540.216 583.131 539.358 583.131 538.438C583.131 537.415 582.898 536.534 582.432 535.795C581.966 535.045 581.33 534.472 580.523 534.074C579.716 533.665 578.801 533.46 577.778 533.46C576.71 533.46 575.778 533.676 574.983 534.108C574.188 534.54 573.574 535.159 573.142 535.966C572.71 536.773 572.494 537.733 572.494 538.847H565.489C565.489 536.562 566.006 534.58 567.04 532.898C568.074 531.216 569.523 529.915 571.386 528.994C573.25 528.074 575.398 527.614 577.83 527.614C580.33 527.614 582.506 528.057 584.358 528.943C586.222 529.818 587.67 531.034 588.705 532.591C589.739 534.148 590.256 535.932 590.256 537.943C590.256 539.261 589.994 540.562 589.472 541.847C588.96 543.131 588.045 544.557 586.727 546.125C585.409 547.682 583.551 549.551 581.153 551.733L576.057 556.727V556.966H590.716V563H565.83Z" fill="#BABABA"/>
</svg>
