<svg width="1000" height="1250" viewBox="0 0 1000 1250" fill="none" xmlns="http://www.w3.org/2000/svg">
<rect width="1000" height="1250" fill="#DBDBDB"/>
<path fill-rule="evenodd" clip-rule="evenodd" d="M600 565C600 553.954 591.046 545 580 545H420C408.954 545 400 553.954 400 565V685C400 696.046 408.954 705 420 705H580C591.046 705 600 696.046 600 685V565ZM475 575C483.284 575 490 581.716 490 590C490 598.284 483.284 605 475 605C466.716 605 460 598.284 460 590C460 581.716 466.716 575 475 575ZM565 675C567.762 675 570 672.762 570 670V666.6C569.993 665.519 569.643 664.469 569 663.6L526.5 606.9C525.533 605.677 524.059 604.964 522.5 604.964C520.941 604.964 519.467 605.677 518.5 606.9L489.7 644.1C488.746 645.347 487.27 646.085 485.7 646.1C484.227 646.102 482.832 645.441 481.9 644.3L467.4 626.8C466.437 625.644 465.005 624.983 463.5 625C462.128 625.144 460.868 625.827 460 626.9L431.1 663.6C430.387 664.437 429.996 665.501 430 666.6V670C430 672.762 432.239 675 435 675H565Z" fill="black" fill-opacity="0.15"/>
<circle cx="579" cy="546" r="41" fill="#DBDBDB"/>
<path d="M578.913 563.477C576.367 563.477 574.1 563.04 572.112 562.165C570.134 561.278 568.572 560.062 567.424 558.517C566.288 556.96 565.702 555.165 565.668 553.131H573.1C573.146 553.983 573.424 554.733 573.935 555.381C574.458 556.017 575.151 556.511 576.015 556.864C576.879 557.216 577.85 557.392 578.93 557.392C580.055 557.392 581.049 557.193 581.913 556.795C582.776 556.398 583.452 555.847 583.941 555.142C584.43 554.437 584.674 553.625 584.674 552.705C584.674 551.773 584.413 550.949 583.89 550.233C583.379 549.506 582.64 548.937 581.674 548.528C580.719 548.119 579.583 547.915 578.265 547.915H575.009V542.494H578.265C579.379 542.494 580.362 542.301 581.214 541.915C582.077 541.528 582.748 540.994 583.225 540.312C583.702 539.619 583.941 538.812 583.941 537.892C583.941 537.017 583.731 536.25 583.31 535.591C582.901 534.92 582.322 534.398 581.572 534.023C580.833 533.648 579.969 533.46 578.981 533.46C577.981 533.46 577.066 533.642 576.237 534.006C575.407 534.358 574.742 534.864 574.242 535.523C573.742 536.182 573.475 536.955 573.441 537.841H566.367C566.401 535.83 566.975 534.057 568.089 532.523C569.202 530.989 570.702 529.79 572.589 528.926C574.487 528.051 576.629 527.614 579.015 527.614C581.424 527.614 583.532 528.051 585.339 528.926C587.146 529.801 588.549 530.983 589.549 532.472C590.56 533.949 591.06 535.608 591.049 537.449C591.06 539.403 590.452 541.034 589.225 542.341C588.009 543.648 586.424 544.477 584.469 544.83V545.102C587.038 545.432 588.992 546.324 590.333 547.778C591.685 549.222 592.356 551.028 592.344 553.199C592.356 555.188 591.782 556.955 590.623 558.5C589.475 560.045 587.89 561.261 585.867 562.148C583.844 563.034 581.526 563.477 578.913 563.477Z" fill="#BABABA"/>
</svg>
