<svg width="1000" height="1500" viewBox="0 0 1000 1500" fill="none" xmlns="http://www.w3.org/2000/svg">
<rect width="1000" height="1500" fill="#DBDBDB"/>
<path fill-rule="evenodd" clip-rule="evenodd" d="M600 690C600 678.954 591.046 670 580 670H420C408.954 670 400 678.954 400 690V810C400 821.046 408.954 830 420 830H580C591.046 830 600 821.046 600 810V690ZM475 700C483.284 700 490 706.716 490 715C490 723.284 483.284 730 475 730C466.716 730 460 723.284 460 715C460 706.716 466.716 700 475 700ZM565 800C567.761 800 570 797.762 570 795V791.6C569.993 790.519 569.643 789.469 569 788.6L526.5 731.9C525.533 730.677 524.059 729.964 522.5 729.964C520.941 729.964 519.467 730.677 518.5 731.9L489.7 769.1C488.746 770.347 487.27 771.085 485.7 771.1C484.227 771.102 482.832 770.441 481.9 769.3L467.4 751.8C466.437 750.644 465.005 749.983 463.5 750C462.127 750.144 460.868 750.827 460 751.9L431.1 788.6C430.387 789.437 429.996 790.501 430 791.6V795C430 797.762 432.239 800 435 800H565Z" fill="black" fill-opacity="0.15"/>
<circle cx="579" cy="671" r="41" fill="#DBDBDB"/>
<path d="M567.212 688V682.682L579.638 671.176C580.695 670.153 581.582 669.233 582.298 668.415C583.025 667.597 583.576 666.795 583.951 666.011C584.326 665.216 584.513 664.358 584.513 663.438C584.513 662.415 584.281 661.534 583.815 660.795C583.349 660.045 582.712 659.472 581.906 659.074C581.099 658.665 580.184 658.46 579.161 658.46C578.093 658.46 577.161 658.676 576.366 659.108C575.57 659.54 574.957 660.159 574.525 660.966C574.093 661.773 573.877 662.733 573.877 663.847H566.871C566.871 661.562 567.388 659.58 568.423 657.898C569.457 656.216 570.906 654.915 572.769 653.994C574.633 653.074 576.781 652.614 579.212 652.614C581.712 652.614 583.888 653.057 585.741 653.943C587.604 654.818 589.053 656.034 590.087 657.591C591.121 659.148 591.638 660.932 591.638 662.943C591.638 664.261 591.377 665.562 590.854 666.847C590.343 668.131 589.428 669.557 588.11 671.125C586.792 672.682 584.934 674.551 582.536 676.733L577.44 681.727V681.966H592.099V688H567.212Z" fill="#BABABA"/>
</svg>
