<svg width="1000" height="1500" viewBox="0 0 1000 1500" fill="none" xmlns="http://www.w3.org/2000/svg">
<rect width="1000" height="1500" fill="#DBDBDB"/>
<path fill-rule="evenodd" clip-rule="evenodd" d="M600 690C600 678.954 591.046 670 580 670H420C408.954 670 400 678.954 400 690V810C400 821.046 408.954 830 420 830H580C591.046 830 600 821.046 600 810V690ZM475 700C483.284 700 490 706.716 490 715C490 723.284 483.284 730 475 730C466.716 730 460 723.284 460 715C460 706.716 466.716 700 475 700ZM565 800C567.761 800 570 797.762 570 795V791.6C569.993 790.519 569.643 789.469 569 788.6L526.5 731.9C525.533 730.677 524.059 729.964 522.5 729.964C520.941 729.964 519.467 730.677 518.5 731.9L489.7 769.1C488.746 770.347 487.27 771.085 485.7 771.1C484.227 771.102 482.832 770.441 481.9 769.3L467.4 751.8C466.437 750.644 465.005 749.983 463.5 750C462.127 750.144 460.868 750.827 460 751.9L431.1 788.6C430.387 789.437 429.996 790.501 430 791.6V795C430 797.762 432.239 800 435 800H565Z" fill="black" fill-opacity="0.15"/>
<circle cx="579" cy="671" r="41" fill="#DBDBDB"/>
<path d="M585.275 653.091V688H577.894V660.097H577.69L569.695 665.108V658.562L578.337 653.091H585.275Z" fill="#BABABA"/>
</svg>
