<svg width="853" height="1280" viewBox="0 0 853 1280" fill="none" xmlns="http://www.w3.org/2000/svg">
<g clip-path="url(#clip0_3702_7148)">
<path d="M853 0H0V1280H853V0Z" fill="#DBDBDB"/>
<path fill-rule="evenodd" clip-rule="evenodd" d="M526.5 580C526.5 568.954 517.546 560 506.5 560H346.5C335.454 560 326.5 568.954 326.5 580V700C326.5 711.046 335.454 720 346.5 720H506.5C517.546 720 526.5 711.046 526.5 700V580ZM401.5 590C409.784 590 416.5 596.716 416.5 605C416.5 613.284 409.784 620 401.5 620C393.216 620 386.5 613.284 386.5 605C386.5 596.716 393.216 590 401.5 590ZM491.5 690C494.261 690 496.5 687.762 496.5 685V681.6C496.493 680.519 496.143 679.469 495.5 678.6L453 621.9C452.033 620.677 450.559 619.964 449 619.964C447.441 619.964 445.967 620.677 445 621.9L416.2 659.1C415.246 660.347 413.77 661.085 412.2 661.1C410.727 661.102 409.332 660.441 408.4 659.3L393.9 641.8C392.937 640.644 391.505 639.983 390 640C388.627 640.144 387.368 640.827 386.5 641.9L357.6 678.6C356.887 679.437 356.496 680.501 356.5 681.6V685C356.5 687.762 358.739 690 361.5 690H491.5Z" fill="black" fill-opacity="0.15"/>
</g>
<defs>
<clipPath id="clip0_3702_7148">
<rect width="853" height="1280" fill="white"/>
</clipPath>
</defs>
</svg>
