<svg width="1000" height="1500" viewBox="0 0 1000 1500" fill="none" xmlns="http://www.w3.org/2000/svg">
<rect width="1000" height="1500" fill="#DBDBDB"/>
<path fill-rule="evenodd" clip-rule="evenodd" d="M600 690C600 678.954 591.046 670 580 670H420C408.954 670 400 678.954 400 690V810C400 821.046 408.954 830 420 830H580C591.046 830 600 821.046 600 810V690ZM475 700C483.284 700 490 706.716 490 715C490 723.284 483.284 730 475 730C466.716 730 460 723.284 460 715C460 706.716 466.716 700 475 700ZM565 800C567.761 800 570 797.762 570 795V791.6C569.993 790.519 569.643 789.469 569 788.6L526.5 731.9C525.533 730.677 524.059 729.964 522.5 729.964C520.941 729.964 519.467 730.677 518.5 731.9L489.7 769.1C488.746 770.347 487.27 771.085 485.7 771.1C484.227 771.102 482.832 770.441 481.9 769.3L467.4 751.8C466.437 750.644 465.005 749.983 463.5 750C462.127 750.144 460.868 750.827 460 751.9L431.1 788.6C430.387 789.437 429.996 790.501 430 791.6V795C430 797.762 432.239 800 435 800H565Z" fill="black" fill-opacity="0.15"/>
<circle cx="579" cy="671" r="41" fill="#DBDBDB"/>
<path d="M578.913 688.477C576.367 688.477 574.1 688.04 572.112 687.165C570.134 686.278 568.572 685.062 567.424 683.517C566.288 681.96 565.702 680.165 565.668 678.131H573.1C573.146 678.983 573.424 679.733 573.935 680.381C574.458 681.017 575.151 681.511 576.015 681.864C576.879 682.216 577.85 682.392 578.93 682.392C580.055 682.392 581.049 682.193 581.913 681.795C582.776 681.398 583.452 680.847 583.941 680.142C584.43 679.437 584.674 678.625 584.674 677.705C584.674 676.773 584.413 675.949 583.89 675.233C583.379 674.506 582.64 673.937 581.674 673.528C580.719 673.119 579.583 672.915 578.265 672.915H575.009V667.494H578.265C579.379 667.494 580.362 667.301 581.214 666.915C582.077 666.528 582.748 665.994 583.225 665.312C583.702 664.619 583.941 663.812 583.941 662.892C583.941 662.017 583.731 661.25 583.31 660.591C582.901 659.92 582.322 659.398 581.572 659.023C580.833 658.648 579.969 658.46 578.981 658.46C577.981 658.46 577.066 658.642 576.237 659.006C575.407 659.358 574.742 659.864 574.242 660.523C573.742 661.182 573.475 661.955 573.441 662.841H566.367C566.401 660.83 566.975 659.057 568.089 657.523C569.202 655.989 570.702 654.79 572.589 653.926C574.487 653.051 576.629 652.614 579.015 652.614C581.424 652.614 583.532 653.051 585.339 653.926C587.146 654.801 588.549 655.983 589.549 657.472C590.56 658.949 591.06 660.608 591.049 662.449C591.06 664.403 590.452 666.034 589.225 667.341C588.009 668.648 586.424 669.477 584.469 669.83V670.102C587.038 670.432 588.992 671.324 590.333 672.778C591.685 674.222 592.356 676.028 592.344 678.199C592.356 680.188 591.782 681.955 590.623 683.5C589.475 685.045 587.89 686.261 585.867 687.148C583.844 688.034 581.526 688.477 578.913 688.477Z" fill="#BABABA"/>
</svg>
