<svg width="1500" height="1000" viewBox="0 0 1500 1000" fill="none" xmlns="http://www.w3.org/2000/svg">
<rect width="1500" height="1000" fill="#DBDBDB"/>
<path fill-rule="evenodd" clip-rule="evenodd" d="M850 440C850 428.954 841.046 420 830 420H670C658.954 420 650 428.954 650 440V560C650 571.046 658.954 580 670 580H830C841.046 580 850 571.046 850 560V440ZM725 450C733.284 450 740 456.716 740 465C740 473.284 733.284 480 725 480C716.716 480 710 473.284 710 465C710 456.716 716.716 450 725 450ZM815 550C817.761 550 820 547.762 820 545V541.6C819.993 540.519 819.643 539.469 819 538.6L776.5 481.9C775.533 480.677 774.059 479.964 772.5 479.964C770.941 479.964 769.467 480.677 768.5 481.9L739.7 519.1C738.746 520.347 737.27 521.085 735.7 521.1C734.227 521.102 732.832 520.441 731.9 519.3L717.4 501.8C716.437 500.644 715.005 499.983 713.5 500C712.127 500.144 710.868 500.827 710 501.9L681.1 538.6C680.387 539.437 679.996 540.501 680 541.6V545C680 547.762 682.239 550 685 550H815Z" fill="black" fill-opacity="0.15"/>
</svg>
